<svg version="1.2" xmlns="http://www.w3.org/2000/svg" viewBox="0 0 500 500" width="500" height="500"><style>.a{fill:#42cacf}.b{fill:#fff}</style><path class="a" d="m388.5 216.2c-2.2 3.4-6.9 9.8-10.5 14.3-3.6 4.4-10.5 12.1-15.5 17-4.9 5-12.8 12.1-17.5 15.8-4.7 3.8-13.4 10.1-19.5 14.1-6.1 4.1-15.9 10.1-22 13.4-6.1 3.4-15.7 8.2-21.5 10.7-5.8 2.6-14.8 6.3-20 8.3-5.2 1.9-15.1 5.3-22 7.4-6.9 2.1-18.1 5.2-25 6.7-6.9 1.6-18.1 3.8-25 5-6.9 1.1-16.6 2.5-21.5 3.1-4.9 0.6-18.4 1.3-30 1.7-12.6 0.3-26.8 0.1-35.5-0.6-8-0.6-19-1.9-24.5-2.7-5.5-0.9-15.4-2.8-22-4.4-6.6-1.6-16.6-4.5-22.3-6.4-5.6-2-10.6-3.6-11.2-3.6-0.6 0-0.9 0.4-0.8 0.9 0.2 0.5 17.8 13.6 39.3 29.1l39 28.2c10.1 18.8 14.8 27.2 17 30.8 2.1 3.6 6.1 9.9 8.8 14 2.8 4.1 7.7 11.1 11 15.5 3.3 4.4 9.6 12.2 13.9 17.3 4.3 5 8.2 9 8.8 8.7 0.6-0.3 1-7.7 1-19.2 0-15.5 0.3-20.2 2-26.8 1.1-4.4 3.5-11.1 5.4-15 1.9-3.9 6.1-10.1 9.3-14 3.2-3.9 9.3-9.5 13.6-12.5 4.2-3 10.7-6.7 14.4-8.2 3.8-1.5 8.8-3.3 11.3-3.9 2.5-0.7 9.9-1.3 16.5-1.3 6.9-0.1 14.4 0.5 17.5 1.2 3 0.8 9.6 3.3 14.5 5.7 4.9 2.4 11.6 6.5 14.8 9.2 3.1 2.6 7.8 7.3 10.3 10.3 2.5 3 6.5 9.6 8.9 14.5 2.4 4.9 5 12.3 5.9 16.3 1.1 5 1.6 12.4 1.6 24.7 0 10.7 0.4 17.7 1 18 0.6 0.3 5.7-6.6 11.4-15.2 5.7-8.7 13.7-21.7 17.7-28.8 4-7.1 10.3-19.3 14-27 3.7-7.7 8.8-18.9 11.4-25 2.6-6.1 6.6-16.2 9-22.5 2.3-6.3 5.9-16.7 8-23 2-6.3 5.2-17.6 7.1-25 1.8-7.4 4.3-18.7 5.3-25 1.1-6.3 2.5-17.3 3.1-24.5 0.6-7.1 0.8-17.6 0.5-23.2-0.4-7.2-1-10.3-1.8-10.3-0.7 0-3 2.8-5.2 6.2z"/><path class="b" d="m450.9 49c-1.8 7.6-2.8 10.1-5.3 12.5-2.3 2.3-5.4 3.7-12.4 5.5-5 1.4-8.9 2.8-8.5 3.1 0.5 0.4 4.2 1.4 8.3 2.4 4.1 1 8.7 2.4 10.3 3.1 1.5 0.8 3.4 2.9 4.2 4.7 0.8 1.7 2.4 7 3.6 11.7 1.4 5.5 2.4 8 2.9 7 0.4-0.8 1.5-5 2.4-9.3 1-5 2.5-8.8 4.1-10.7 1.7-2.1 4.5-3.6 8.8-4.9 3.4-1 7.9-2.2 10-2.5 2-0.3 3.7-0.9 3.7-1.3 0-0.5-3.7-1.7-8.2-2.8-4.5-1.1-9.4-2.8-11-3.7-1.5-1-3.4-3.3-4.2-5-0.8-1.8-2.2-6.4-3.2-10.3-0.9-3.8-2-7.5-2.4-8-0.5-0.5-1.8 3.3-3.1 8.5zm-85.2 24c-0.3 0.8-1.4 4.4-2.3 8-0.9 3.6-2.2 7.6-2.9 9-0.7 1.4-2.7 3.2-4.6 4.1-1.9 0.9-5 2-6.9 2.4-1.9 0.3-5 1.1-6.7 1.6-1.8 0.5-3.3 1.2-3.3 1.7 0 0.4 3.7 1.5 8.2 2.6 6 1.3 9 2.6 10.9 4.5 1.7 1.7 3.4 5.5 5 11.4 1.3 4.8 2.6 8.7 2.9 8.7 0.3 0 1.1-2.6 1.8-5.7 0.8-3.2 2.3-7.7 3.3-10 1.1-2.5 3.1-4.9 4.7-5.7 1.5-0.8 5.9-2.2 9.7-3.2 3.9-0.9 7.3-2 7.7-2.3 0.4-0.3-3.2-1.6-8-2.8-6.8-1.8-9.3-2.9-11.4-5.3-1.6-1.6-3.3-4.9-3.9-7.2-0.5-2.4-1.6-6.3-2.3-8.8-0.8-2.8-1.5-3.9-1.9-3zm36 67.4l-20.7 25.6c-4.4-5.8-8.3-9.9-11.6-12.8-3.4-3-8.3-6.2-11.4-7.4-3.5-1.3-8.8-2.3-14.5-2.6-7.4-0.4-10.3-0.1-16.5 1.8-4.1 1.2-10.6 3.7-14.5 5.5-3.8 1.7-16.7 9.7-28.5 17.7-12.3 8.2-26.9 17.1-34 20.6-6.9 3.4-16.1 7.3-20.5 8.7-4.4 1.4-12.3 3.1-17.5 3.7-7 0.8-11.8 0.8-18.2-0.1-4.9-0.6-8.8-1.4-8.8-1.9 0-0.4 5.1-1.5 11.3-2.5 6.1-1 16.6-3.6 23.2-5.8 6.6-2.2 15.5-5.9 19.8-8.2 4.3-2.3 10.1-6.2 13-8.7 2.8-2.5 6.8-6.6 8.9-9.3 2.1-2.6 3.8-5.4 3.8-6.2 0-1.2-0.5-1.3-2.7-0.4-1.6 0.6-6.4 1.7-10.8 2.5-4.4 0.8-10.8 1.4-14.2 1.4-3.5 0-10.7-0.5-16-1.1-5.4-0.6-16.8-2.9-25.3-5.1-8.5-2.2-20-5.1-25.5-6.4-5.5-1.3-14.7-2.8-20.5-3.3-6-0.5-14.1-0.5-19 0-4.7 0.4-12.1 1.9-16.5 3.3-4.4 1.4-10.7 4.3-14 6.4-3.3 2.1-8.5 6.6-11.6 9.8-3 3.2-7.1 8.6-9 11.9-1.9 3.3-4.5 8.5-5.7 11.5-1.2 3-3.1 9.1-4.2 13.5-1.1 4.4-2.5 12.3-3.2 17.5-0.7 5.9-0.8 16.2-0.4 27 0.3 9.6 1.2 21.3 2 26 0.7 4.7 2.3 13.2 3.5 19 1.2 5.8 2.5 11.1 2.9 11.7 0.4 0.7 3.4 1.7 6.7 2.3 3.3 0.6 13.2 1.7 22 2.5 8.8 0.8 25.7 1.5 37.5 1.5 11.8 0 26.7-0.5 33-1 6.3-0.6 18.7-2.2 27.5-3.6 8.8-1.3 23.2-4.3 32-6.5 8.8-2.3 21.4-6.1 28-8.4 6.6-2.3 16.7-6.4 22.5-8.9 5.8-2.6 14.3-6.8 19-9.3 4.7-2.6 13.9-8.3 20.5-12.7 6.6-4.4 14.9-10.5 18.5-13.5 3.6-2.9 10.3-9 14.8-13.5 4.6-4.4 11.8-12.1 16-17.1 4.3-4.9 11.5-14.6 16-21.5 4.6-6.9 11.7-19.3 15.7-27.5 4.3-8.8 9.7-22.1 13-32 3.1-9.3 5.5-17.6 5.3-18.3-0.3-0.8-9.7 10.1-21.1 24.2zm43.8 40.4c-1.1 4.5-2.7 8.6-3.9 9.8-1.2 1.2-5.5 3.1-9.6 4.3-4.1 1.2-8.2 2.5-9 2.8-1 0.4-0.3 0.9 2 1.5 1.9 0.5 5.9 1.5 8.8 2.3 2.8 0.8 6.1 2.5 7.2 3.8 1.2 1.2 2.5 3.8 3 5.7 0.5 1.9 1.3 5.4 1.9 7.8 0.6 2.3 1.4 4.2 1.9 4.2 0.4 0 1.5-3.2 2.5-7.2 0.9-4 2.4-8.3 3.1-9.5 0.8-1.2 3.6-2.8 6.3-3.7 2.6-0.8 6.7-2 9.1-2.5 2.3-0.6 4.2-1.4 4.2-1.8 0-0.5-3.5-1.7-7.7-2.7-5.4-1.3-8.6-2.7-10.3-4.5-1.8-1.8-3-4.9-4.2-10.3-0.9-4.3-2.1-7.8-2.6-7.8-0.5 0-1.7 3.5-2.7 7.8z"/></svg>